<svg xmlns="http://www.w3.org/2000/svg" viewBox="0 0 460 120" width="100%" height="100%">
  <g transform="translate(10, 10)">
    <rect x="85" y="25" width="355" height="55" fill="#27509B" rx="4"/>
    <rect x="85" y="73" width="280" height="7" fill="#FCEE21" rx="2"/>
    <text x="102" y="65" font-family="'Arial Black', sans-serif" font-weight="900" font-size="38" fill="#FFFFFF" font-style="italic" letter-spacing="2">MICHELIN</text>
    <g transform="translate(5, 2)">
      <circle cx="45" cy="18" r="11" fill="#FFFFFF" stroke="#27509B" stroke-width="3"/>
      <ellipse cx="45" cy="18" rx="7" ry="7" fill="#FFFFFF"/>
      <circle cx="42" cy="16" r="2" fill="#27509B"/>
      <circle cx="48" cy="16" r="2" fill="#27509B"/>
      <path d="M 40 22 Q 45 25 50 22" fill="none" stroke="#27509B" stroke-width="2"/>
      <path d="M 26 32 Q 45 26 64 32 Q 66 44 24 44 Z" fill="#FFFFFF" stroke="#27509B" stroke-width="3"/>
      <path d="M 23 45 Q 45 38 67 45 Q 69 58 21 58 Z" fill="#FFFFFF" stroke="#27509B" stroke-width="3"/>
      <path d="M 26 59 Q 45 52 64 59 Q 66 73 24 73 Z" fill="#FFFFFF" stroke="#27509B" stroke-width="3"/>
      <path d="M 22 24 Q 10 10 6 22 Q 12 30 24 34 Z" fill="#FFFFFF" stroke="#27509B" stroke-width="3"/>
    </g>
  </g>
</svg>
